<svg width="88" height="71" viewBox="0 0 88 71" fill="none" xmlns="http://www.w3.org/2000/svg">
<g clip-path="url(#clip0_89_57)">
<path d="M44.4297 2.06037C62.5774 2.29185 77.2179 17.1747 77.2179 35.4999L77.2153 35.932C77.1985 37.253 77.1053 38.5556 76.9408 39.8354H85.9047V41.8934H76.6113C73.6476 57.3046 60.1742 68.9419 44.0005 68.9419L43.5713 68.9393C27.589 68.7356 14.3271 57.1683 11.3897 41.8934H2.09521V39.8354H11.0598C10.8774 38.4162 10.7831 36.9691 10.7831 35.4999C10.7831 17.0304 25.6551 2.05786 44.0005 2.05786L44.4297 2.06037ZM42.2132 16.1737C41.2324 16.7258 39.883 18.6432 38.8355 20.2023C34.2375 26.9786 30.6366 34.8022 23.3264 40.1057C21.7694 41.115 19.8959 41.911 17.8499 41.8929V41.8934H12.4563C15.4043 56.7479 28.4247 67.9129 44.0005 67.9129C59.576 67.9129 72.5963 56.7479 75.5443 41.8934H70.1501C68.5232 41.9804 66.9554 42.3667 65.4683 42.9842C61.1265 44.7949 57.7222 48.3143 54.1158 51.8309C53.2374 52.6639 52.3682 53.5195 51.2039 54.3283C50.5879 54.7224 49.9421 55.1756 48.7843 55.2929C48.2117 55.3418 47.5183 55.1983 46.9817 54.8587C46.5078 54.5768 46.1024 54.1055 45.8962 53.7947C44.303 50.9301 44.3919 48.679 44.0828 46.2274C43.6807 41.3783 43.6669 36.6645 43.6757 31.8874C43.6781 27.7148 43.6603 23.643 43.1621 19.7064C43.09 19.1799 43.0132 18.7179 42.9283 18.2955C42.818 17.7584 42.7173 17.3642 42.5805 16.9611C42.5033 16.7371 42.4261 16.5549 42.3564 16.4164C42.3253 16.3538 42.2802 16.2721 42.2408 16.2124C42.2315 16.1982 42.2216 16.1857 42.2132 16.1737ZM44.0005 3.08685C26.2579 3.08685 11.8307 17.5746 11.8307 35.4999C11.8307 36.9702 11.9281 38.4174 12.1162 39.8354H17.8305C19.3107 39.8179 20.7655 39.197 22.0844 38.2969C28.417 33.532 32.0226 25.7576 36.5551 18.7573C37.8425 16.9874 38.4681 15.1842 41.2357 13.5751C41.5739 13.4243 42.247 13.2693 42.8234 13.4013C43.3893 13.4961 43.9845 13.9294 44.2179 14.1942C44.8314 14.8708 45.0306 15.4074 45.2742 16.0436C45.4766 16.6153 45.6035 17.0984 45.7407 17.7278C45.8469 18.2197 45.9391 18.7366 46.0246 19.3119C46.6128 23.5646 46.6598 27.6474 46.6963 31.8874C46.7269 36.6219 46.7765 41.3168 47.1828 45.9576C47.401 48.1787 47.7015 50.7646 48.4994 52.0784C48.5368 52.135 48.5765 52.1803 48.6048 52.2096C48.6572 52.1972 48.7467 52.1705 48.8677 52.1134C49.0119 52.047 49.2257 51.922 49.4171 51.7908C50.2253 51.2348 51.0817 50.4243 51.919 49.6238C55.4546 46.1923 59.3523 42.362 64.57 40.6247C66.3546 40.036 68.2576 39.7444 70.1501 39.8354H75.8843C76.0723 38.4174 76.1703 36.9702 76.1703 35.4999C76.1703 17.5747 61.743 3.08699 44.0005 3.08685Z" fill="white"/>
<path d="M44.4297 2.06048L44.4569 0.00268574L44.4495 0.00259178L44.4422 0.00254872L44.4297 2.06048ZM77.2179 35.5L79.3131 35.512V35.506V35.5H77.2179ZM77.2153 35.9321L79.3105 35.9575V35.9508V35.9441L77.2153 35.9321ZM76.9408 39.8355L74.8618 39.5777L74.5643 41.8935H76.9408V39.8355ZM85.9048 39.8355H88V37.7776H85.9048V39.8355ZM85.9048 41.8935V43.9515H88V41.8935H85.9048ZM76.6113 41.8935V39.8355H74.8749L74.5522 41.5115L76.6113 41.8935ZM44.0005 68.942L43.988 71H43.9943H44.0005V68.942ZM43.5713 68.9395L43.5441 70.9974H43.5515H43.5588L43.5713 68.9395ZM11.3898 41.8935L13.4486 41.5115L13.1264 39.8355H11.3898V41.8935ZM2.09524 41.8935H0V43.9515H2.09524V41.8935ZM2.09524 39.8355V37.7776H0V39.8355H2.09524ZM11.0599 39.8355V41.8935H13.4363L13.1386 39.5777L11.0599 39.8355ZM44.0005 2.05797L44.013 3.6554e-05L44.0068 0H44.0005V2.05797ZM42.2132 16.1739L43.9353 15.0015L42.8398 13.4491L41.1714 14.3883L42.2132 16.1739ZM38.8356 20.2024L40.5791 21.3437L40.5817 21.3398L40.5843 21.3359L38.8356 20.2024ZM23.3264 40.1058L24.4805 41.8234L24.5267 41.7935L24.5712 41.7612L23.3264 40.1058ZM17.8499 41.893L17.8688 39.8351L15.7547 39.8164V41.893H17.8499ZM17.8499 41.8935V43.9515H19.9451V41.8935H17.8499ZM12.4563 41.8935V39.8355H9.91325L10.3998 42.2872L12.4563 41.8935ZM75.5443 41.8935L77.6008 42.2872L78.0874 39.8355H75.5443V41.8935ZM70.1501 41.8935V39.8355H70.093L70.036 39.8386L70.1501 41.8935ZM65.4683 42.9843L64.6528 41.0887L64.6496 41.09L65.4683 42.9843ZM54.1158 51.831L55.571 53.3123L55.582 53.302L55.5924 53.2917L54.1158 51.831ZM51.2039 54.3284L52.3478 56.0524L52.381 56.0313L52.4134 56.0087L51.2039 54.3284ZM48.7844 55.2931L48.9657 57.3433L48.9824 57.3418L48.999 57.3402L48.7844 55.2931ZM46.9817 54.8588L48.1161 53.1286L48.0922 53.1131L48.0678 53.0987L46.9817 54.8588ZM45.8962 53.7948L44.0575 54.7811L44.0962 54.8506L44.1402 54.9175L45.8962 53.7948ZM44.0829 46.2275L41.9945 46.3945L41.9981 46.4376L42.0035 46.4804L44.0829 46.2275ZM43.6757 31.8875L45.7709 31.8912V31.8887L43.6757 31.8875ZM43.1621 19.7065L45.2413 19.4526L45.2401 19.4424L45.2387 19.4323L43.1621 19.7065ZM42.9283 18.2956L44.9839 17.8969L44.983 17.8928L44.9822 17.8887L42.9283 18.2956ZM42.5805 16.9612L44.5682 16.3105L44.5668 16.306L44.5652 16.3016L42.5805 16.9612ZM42.3564 16.4165L40.4736 17.3193L40.4757 17.3236L40.4779 17.328L42.3564 16.4165ZM42.2408 16.2125L40.4772 17.3236L40.4798 17.3276L40.4824 17.3315L42.2408 16.2125ZM12.1162 39.8355L10.0385 40.1013L10.2761 41.8935H12.1162V39.8355ZM17.8305 39.8355V41.8935H17.843L17.8556 41.8933L17.8305 39.8355ZM22.0844 38.297L23.2799 39.9871L23.3199 39.9598L23.3586 39.9308L22.0844 38.297ZM36.5552 18.7574L34.8503 17.561L34.8175 17.6062L34.7872 17.653L36.5552 18.7574ZM41.2357 13.5753L40.3692 11.7015L40.266 11.7476L40.1684 11.8043L41.2357 13.5753ZM42.8235 13.4015L42.3477 15.4057L42.4092 15.4197L42.4714 15.4302L42.8235 13.4015ZM44.2179 14.1943L42.634 15.5414L42.6435 15.5522L42.6532 15.5629L44.2179 14.1943ZM45.2742 16.0437L47.2532 15.3677L47.2446 15.3434L47.2354 15.3192L45.2742 16.0437ZM45.7407 17.7279L47.7904 17.301L47.7896 17.2969L45.7407 17.7279ZM46.0246 19.3121L48.1008 19.035L48.0994 19.0249L48.0979 19.0147L46.0246 19.3121ZM46.6963 31.8875L48.7915 31.8744L48.7914 31.8701L46.6963 31.8875ZM47.1828 45.9577L45.0952 46.1339L45.0962 46.1447L45.0972 46.1554L47.1828 45.9577ZM48.4994 52.0785L46.7001 53.1327L46.7199 53.1656L46.741 53.1975L48.4994 52.0785ZM48.6048 52.2097L47.0875 53.6287L47.9148 54.4817L49.0827 54.2131L48.6048 52.2097ZM48.8678 52.1135L47.9811 50.2489L47.9715 50.2533L47.9619 50.2578L48.8678 52.1135ZM49.4171 51.7909L50.6167 53.4784L50.6192 53.4764L49.4171 51.7909ZM51.9191 49.6239L53.3804 51.0986L53.3861 51.0932L53.3919 51.0877L51.9191 49.6239ZM64.57 40.6248L63.9027 38.6739L63.8969 38.6758L64.57 40.6248ZM70.1501 39.8355L70.0475 41.891L70.0988 41.8935H70.1501V39.8355ZM75.8843 39.8355V41.8935H77.7244L77.9622 40.1013L75.8843 39.8355ZM44.4297 2.06048L44.4025 4.11828C61.3575 4.33454 75.1227 18.2552 75.1227 35.5H77.2179H79.3131C79.3131 16.0945 63.7969 0.249375 44.4569 0.00268574L44.4297 2.06048ZM77.2179 35.5L75.1227 35.488L75.12 35.9201L77.2153 35.9321L79.3105 35.9441L79.3131 35.512L77.2179 35.5ZM77.2153 35.9321L75.12 35.9067C75.1049 37.1489 75.0169 38.3739 74.8618 39.5777L76.9408 39.8355L79.0193 40.0934C79.1937 38.7374 79.2927 37.3572 79.3105 35.9575L77.2153 35.9321ZM76.9408 39.8355V41.8935H85.9048V39.8355V37.7776H76.9408V39.8355ZM85.9048 39.8355H83.8095V41.8935H85.9048H88V39.8355H85.9048ZM85.9048 41.8935V39.8355H76.6113V41.8935V43.9515H85.9048V41.8935ZM76.6113 41.8935L74.5522 41.5115C71.7656 56.0041 59.1124 66.8841 44.0005 66.8841L44.0005 68.942V71C61.2354 71 75.5297 58.6054 78.6699 42.2754L76.6113 41.8935ZM44.0005 68.942L44.013 66.8841L43.5838 66.8815L43.5713 68.9395L43.5588 70.9974L43.988 71L44.0005 68.942ZM43.5713 68.9395L43.5986 66.8815C28.6654 66.6911 16.2108 55.8755 13.4486 41.5115L11.3898 41.8935L9.33093 42.2754C12.4434 58.4608 26.5125 70.7803 43.5441 70.9974L43.5713 68.9395ZM11.3898 41.8935V39.8355H2.09524V41.8935V43.9515H11.3898V41.8935ZM2.09524 41.8935H4.19048V39.8355H2.09524H0V41.8935H2.09524ZM2.09524 39.8355V41.8935H11.0599V39.8355V37.7776H2.09524V39.8355ZM11.0599 39.8355L13.1386 39.5777C12.9671 38.2437 12.8783 36.8826 12.8783 35.5H10.7831H8.68785C8.68785 37.0557 8.78769 38.589 8.98113 40.0933L11.0599 39.8355ZM10.7831 35.5H12.8783C12.8784 18.1189 26.8607 4.11594 44.0005 4.11594V2.05797V0C24.4494 0 8.68796 15.9421 8.68785 35.5H10.7831ZM44.0005 2.05797L43.988 4.11591L44.4172 4.11842L44.4297 2.06048L44.4422 0.00254872L44.013 3.6554e-05L44.0005 2.05797ZM42.2132 16.1739L41.1714 14.3883C40.2856 14.887 39.4825 15.8087 38.898 16.5439C38.2523 17.3561 37.6145 18.2834 37.0868 19.0689L38.8356 20.2024L40.5843 21.3359C41.1041 20.5623 41.6648 19.7514 42.2008 19.0771C42.4682 18.7408 42.7089 18.4647 42.9163 18.2566C43.0188 18.1537 43.1028 18.078 43.1679 18.0248C43.2353 17.9699 43.2639 17.9544 43.255 17.9594L42.2132 16.1739ZM38.8356 20.2024L37.0921 19.061C35.9144 20.7966 34.8037 22.5946 33.7116 24.3538C32.6112 26.1263 31.5257 27.8658 30.363 29.5528C28.0419 32.9204 25.4699 35.9923 22.0816 38.4505L23.3264 40.1058L24.5712 41.7612C28.4931 38.9159 31.3766 35.4243 33.8331 31.8601C35.0591 30.0812 36.1929 28.2628 37.2893 26.4967C38.394 24.7174 39.4577 22.9963 40.5791 21.3437L38.8356 20.2024ZM23.3264 40.1058L22.1723 38.3882C20.8129 39.2694 19.3486 39.8482 17.8688 39.8351L17.8499 41.893L17.8311 43.9509C20.4434 43.974 22.726 42.9608 24.4805 41.8234L23.3264 40.1058ZM17.8499 41.893H15.7547V41.8935H17.8499H19.9451V41.893H17.8499ZM17.8499 41.8935V39.8355H12.4563V41.8935V43.9515H17.8499V41.8935ZM12.4563 41.8935L10.3998 42.2872C13.5291 58.0554 27.3681 69.971 44.0005 69.971V67.913V65.8551C29.4814 65.8551 17.2796 55.4407 14.5129 41.4997L12.4563 41.8935ZM44.0005 67.913V69.971C60.6331 69.971 74.4716 58.0548 77.6008 42.2872L75.5443 41.8935L73.4879 41.4997C70.7211 55.4407 58.5195 65.8551 44.0005 65.8551V67.913ZM75.5443 41.8935V39.8355H70.1501V41.8935V43.9515H75.5443V41.8935ZM70.1501 41.8935L70.036 39.8386C68.1429 39.9399 66.3389 40.3887 64.6528 41.0887L65.4683 42.9843L66.2844 44.8799C67.5725 44.345 68.9035 44.0212 70.2643 43.9484L70.1501 41.8935ZM65.4683 42.9843L64.6496 41.09C59.852 43.0906 56.1351 46.962 52.6397 50.3707L54.1158 51.831L55.5924 53.2917C59.3094 49.6667 62.4009 46.4993 66.2876 44.8786L65.4683 42.9843ZM54.1158 51.831L52.6612 50.3502C51.7482 51.2154 51.0014 51.9483 49.9942 52.648L51.2039 54.3284L52.4134 56.0087C53.735 55.0909 54.726 54.1128 55.571 53.3123L54.1158 51.831ZM51.2039 54.3284L50.06 52.6038C49.7028 52.8327 49.5267 52.95 49.3046 53.0524C49.1199 53.1384 48.8973 53.2124 48.5697 53.2459L48.7844 55.2931L48.999 57.3402C50.7148 57.1663 51.743 56.4393 52.3478 56.0524L51.2039 54.3284ZM48.7844 55.2931L48.603 53.2428C48.5554 53.2469 48.4626 53.2443 48.3501 53.2181C48.2384 53.1924 48.1581 53.1548 48.1161 53.1286L46.9817 54.8588L45.8474 56.5891C46.802 57.1926 47.9644 57.4287 48.9657 57.3433L48.7844 55.2931ZM46.9817 54.8588L48.0678 53.0987C48.0333 53.0782 47.9553 53.0205 47.8546 52.9171C47.7569 52.8163 47.6845 52.7206 47.6523 52.6722L45.8962 53.7948L44.1402 54.9175C44.4509 55.3862 45.064 56.1234 45.8956 56.6189L46.9817 54.8588ZM45.8962 53.7948L47.735 52.808C46.3888 50.3878 46.506 48.7018 46.1622 45.9746L44.0829 46.2275L42.0035 46.4804C42.2778 48.6566 42.2171 51.4724 44.0575 54.7811L45.8962 53.7948ZM44.0829 46.2275L46.1712 46.0604C45.777 41.3068 45.7621 36.6717 45.7709 31.8912L43.6757 31.8875L41.5805 31.8838C41.5717 36.6577 41.5845 41.45 41.9945 46.3945L44.0829 46.2275ZM43.6757 31.8875L45.7709 31.8887C45.7734 27.731 45.7581 23.5352 45.2413 19.4526L43.1621 19.7065L41.0829 19.9604C41.5627 23.751 41.583 27.6989 41.5805 31.8863L43.6757 31.8875ZM43.1621 19.7065L45.2387 19.4323C45.162 18.8723 45.0786 18.3678 44.9839 17.8969L42.9283 18.2956L40.8728 18.6944C40.9479 19.0681 41.0181 19.4878 41.0856 19.9807L43.1621 19.7065ZM42.9283 18.2956L44.9822 17.8887C44.8615 17.3007 44.7409 16.8192 44.5682 16.3105L42.5805 16.9612L40.5927 17.6119C40.6937 17.9094 40.7746 18.2162 40.8745 18.7026L42.9283 18.2956ZM42.5805 16.9612L44.5652 16.3016C44.4638 16.0073 44.3526 15.7389 44.235 15.5051L42.3564 16.4165L40.4779 17.328C40.4996 17.3711 40.5428 17.467 40.5958 17.6208L42.5805 16.9612ZM42.3564 16.4165L44.2393 15.5138C44.184 15.4023 44.098 15.2432 43.9993 15.0936L42.2408 16.2125L40.4824 17.3315C40.4777 17.3245 40.4743 17.3192 40.4721 17.3156C40.4699 17.312 40.4684 17.3095 40.4676 17.3083C40.4663 17.306 40.4664 17.3063 40.4679 17.3088C40.4693 17.3113 40.4709 17.3142 40.4724 17.317C40.4739 17.3199 40.4743 17.3209 40.4736 17.3193L42.3564 16.4165ZM42.2408 16.2125L44.0045 15.1015C43.9694 15.0477 43.9387 15.0057 43.9272 14.9901C43.9241 14.9858 43.9214 14.9821 43.9202 14.9805C43.9184 14.9781 43.9187 14.9785 43.919 14.9788C43.9194 14.9795 43.9262 14.9887 43.9353 15.0015L42.2132 16.1739L40.4912 17.3462C40.4981 17.356 40.5042 17.3645 40.509 17.3711C40.5138 17.3777 40.5179 17.3833 40.5206 17.387C40.5231 17.3905 40.5257 17.3939 40.5263 17.3947C40.527 17.3957 40.5273 17.3961 40.5263 17.3947C40.5247 17.3926 40.5187 17.3843 40.5106 17.3729C40.5024 17.3612 40.4907 17.3444 40.4772 17.3236L42.2408 16.2125ZM44.0005 3.08696V1.02899C25.0528 1.02899 9.73558 16.4858 9.73547 35.5H11.8307H13.9259C13.926 18.6636 27.4631 5.14493 44.0005 5.14493V3.08696ZM11.8307 35.5H9.73547C9.73547 37.0597 9.83887 38.5957 10.0385 40.1013L12.1162 39.8355L14.1939 39.5697C14.0175 38.2394 13.9259 36.8809 13.9259 35.5H11.8307ZM12.1162 39.8355V41.8935H17.8305V39.8355V37.7776H12.1162V39.8355ZM17.8305 39.8355L17.8556 41.8933C19.908 41.8691 21.7693 41.018 23.2799 39.9871L22.0844 38.297L20.8889 36.607C19.7617 37.3762 18.7135 37.767 17.8053 37.7777L17.8305 39.8355ZM22.0844 38.297L23.3586 39.9308C26.8013 37.3402 29.4395 33.9805 31.7515 30.4871C32.9092 28.7378 34.0041 26.9247 35.0767 25.1398C36.1566 23.3429 37.2126 21.577 38.3232 19.8618L36.5552 18.7574L34.7872 17.653C33.6314 19.4379 32.537 21.2689 31.4681 23.0475C30.392 24.8381 29.3399 26.579 28.238 28.2439C26.0309 31.5789 23.7 34.4889 20.8102 36.6634L22.0844 38.297ZM36.5552 18.7574L38.26 19.9537C39.8246 17.8026 40.0403 16.6617 42.3029 15.3462L41.2357 13.5753L40.1684 11.8043C36.896 13.7068 35.8605 16.1723 34.8503 17.561L36.5552 18.7574ZM41.2357 13.5753L42.1022 15.449C42.0784 15.4596 42.0851 15.4548 42.1226 15.4442C42.1569 15.4346 42.2005 15.4248 42.2471 15.4181C42.2941 15.4112 42.3314 15.4093 42.3558 15.4095C42.3812 15.4098 42.3769 15.4123 42.3477 15.4057L42.8235 13.4015L43.2993 11.3972C42.1439 11.1326 40.9888 11.4251 40.3692 11.7015L41.2357 13.5753ZM42.8235 13.4015L42.4714 15.4302C42.4177 15.4211 42.4024 15.4115 42.4271 15.4218C42.4494 15.4311 42.4861 15.4492 42.5318 15.4773C42.5769 15.5052 42.6164 15.5339 42.6441 15.5565C42.6506 15.5618 42.6556 15.566 42.6593 15.5692C42.661 15.5708 42.6624 15.572 42.6633 15.5729C42.6622 15.5718 42.6601 15.5696 42.6577 15.5671C42.6531 15.5624 42.645 15.5539 42.634 15.5414L44.2179 14.1943L45.8019 12.8471C45.52 12.5275 45.1414 12.2265 44.7589 11.9909C44.3772 11.7556 43.8244 11.4814 43.1755 11.3727L42.8235 13.4015ZM44.2179 14.1943L42.6532 15.5629C42.8432 15.7725 42.9468 15.9335 43.0234 16.079C43.1137 16.2506 43.1821 16.4262 43.3131 16.7682L45.2742 16.0437L47.2354 15.3192C46.9795 14.6512 46.6707 13.8051 45.7827 12.8256L44.2179 14.1943ZM45.2742 16.0437L43.2952 16.7197C43.4607 17.1871 43.5664 17.5832 43.692 18.1589L45.7407 17.7279L47.7896 17.2969C47.6406 16.614 47.4926 16.0437 47.2532 15.3677L45.2742 16.0437ZM45.7407 17.7279L43.6911 18.1548C43.7864 18.5962 43.8711 19.0691 43.9514 19.6094L46.0246 19.3121L48.0979 19.0147C48.0071 18.4043 47.9075 17.8434 47.7904 17.301L45.7407 17.7279ZM46.0246 19.3121L43.9485 19.5891C44.5163 23.6941 44.5645 27.6522 44.6011 31.9049L46.6963 31.8875L48.7914 31.8701C48.7551 27.6428 48.7094 23.4352 48.1008 19.035L46.0246 19.3121ZM46.6963 31.8875L44.6011 31.9006C44.6317 36.629 44.6809 41.4008 45.0952 46.1339L47.1828 45.9577L49.2703 45.7814C48.8722 41.233 48.8222 36.6152 48.7915 31.8744L46.6963 31.8875ZM47.1828 45.9577L45.0972 46.1554C45.2065 47.2671 45.343 48.5456 45.5625 49.7276C45.7723 50.8571 46.0978 52.1413 46.7001 53.1327L48.4994 52.0785L50.2988 51.0239C50.1031 50.7018 49.8795 50.0361 49.685 48.989C49.5002 47.9944 49.3773 46.8694 49.2683 45.7599L47.1828 45.9577ZM48.4994 52.0785L46.741 53.1975C46.8656 53.3863 46.9931 53.5314 47.0875 53.6287L48.6048 52.2097L50.1221 50.7902C50.1598 50.8292 50.2081 50.8839 50.2579 50.9593L48.4994 52.0785ZM48.6048 52.2097L49.0827 54.2131C49.2895 54.1658 49.5221 54.0876 49.7736 53.9693L48.8678 52.1135L47.9619 50.2578C47.9713 50.2534 48.0249 50.2292 48.1269 50.2057L48.6048 52.2097ZM48.8678 52.1135L49.7544 53.978C50.043 53.8458 50.3641 53.6513 50.6167 53.4784L49.4171 51.7909L48.2176 50.1036C48.1635 50.1407 48.104 50.1783 48.0504 50.2098C48.0242 50.2252 48.0031 50.2369 47.9882 50.2448C47.9721 50.2534 47.9702 50.2539 47.9811 50.2489L48.8678 52.1135ZM49.4171 51.7909L50.6192 53.4764C51.5917 52.8075 52.5716 51.8722 53.3804 51.0986L51.9191 49.6239L50.4576 48.1492C49.592 48.9767 48.8591 49.6623 48.2151 50.1053L49.4171 51.7909ZM51.9191 49.6239L53.3919 51.0877C56.9941 47.5915 60.5597 44.1332 65.2426 42.5739L64.57 40.6248L63.8969 38.6758C58.1455 40.591 53.9152 44.7933 50.4463 48.1601L51.9191 49.6239ZM64.57 40.6248L65.2368 42.5757C66.7972 42.061 68.4394 41.8137 70.0475 41.891L70.1501 39.8355L70.2523 37.78C68.0753 37.6753 65.912 38.0112 63.9027 38.6739L64.57 40.6248ZM70.1501 39.8355V41.8935H75.8843V39.8355V37.7776H70.1501V39.8355ZM75.8843 39.8355L77.9622 40.1013C78.1618 38.5962 78.2655 37.0602 78.2655 35.5H76.1703H74.0751C74.0751 36.8804 73.9829 38.2389 73.8069 39.5697L75.8843 39.8355ZM76.1703 35.5H78.2655C78.2655 16.4859 62.9483 1.02914 44.0005 1.02899V3.08696V5.14493C60.5378 5.14508 74.0751 18.6637 74.0751 35.5H76.1703Z" fill="white"/>
</g>
<defs>
<clipPath id="clip0_89_57">
<rect width="88" height="71" fill="white"/>
</clipPath>
</defs>
</svg>
